<?xml version="1.0" encoding="utf-8"?>
<!-- Generator: Adobe Illustrator 21.1.0, SVG Export Plug-In . SVG Version: 6.00 Build 0)  -->
<svg version="1.1" id="Layer_1" xmlns="http://www.w3.org/2000/svg" xmlns:xlink="http://www.w3.org/1999/xlink" x="0px" y="0px"
	 viewBox="0 0 350.3 208.4" style="enable-background:new 0 0 350.3 208.4;" xml:space="preserve">
<style type="text/css">
	.st0{fill:#E31837;}
	.st1{fill:#636466;}
</style>
<g>
	<path class="st0" d="M117.7,141.6l-10.4-15.8h-0.1H96.9v15.8H83.3V87h23.9c13.6,0,22.7,7.4,22.7,19.2c0,7.2-3.5,12.9-9.2,16.3
		l12.9,19.1H117.7z M96.9,113.6h10c5.2,0,9.3-2.9,9.3-7.4c0-4.4-4.1-7.2-9.3-7.2h-10V113.6z"/>
	<path class="st0" d="M153.7,98.8v10H178v11.6h-24.3v9.5h27.7v11.8h-41.3V87h41.3v11.8H153.7z"/>
	<path class="st0" d="M242.1,114.1c0,16.2-12.3,27.5-29.5,27.5h-22V87h22C229.8,87,242.1,98.1,242.1,114.1z M228.3,114.1
		c0-8.5-6.8-15-15.8-15h-8.4v30.2h8.4C221.5,129.4,228.3,122.8,228.3,114.1z"/>
	<path class="st0" d="M263.1,87v54.7h-13.6V87H263.1z"/>
	<path class="st0" d="M315.2,99.1h-15.7v42.5H286V99.1h-15.7V87h44.9V99.1z"/>
	<path class="st0" d="M61.2,121.9c-2.1,5-6.5,8-12.6,8c-8.9,0-15.1-6.6-15.1-15.7c0-9.1,6.2-15.7,15.1-15.7c6.1,0,10.5,3,12.6,8
		h14.4c-2.8-12.5-13.1-20.7-26.9-20.7c-16.5,0-28.9,11.9-28.9,28.4c0,16.5,12.5,28.4,28.9,28.4c13.8,0,24.1-8.2,26.9-20.7H61.2z"/>
	<path class="st0" d="M72.4,19.5v54.7H58.8V53.7H36.6v20.5H23V19.5h13.6v22h22.3v-22H72.4z"/>
	<path class="st0" d="M228.6,74.2H215V46.8l-12.1,18.7v0.1h-7.6v-0.1l-12.2-18.9l0.1,27.6h-13.6V19.5h10.1l19.4,29.2l19.4-29.2h10.1
		V74.2z"/>
	<path class="st0" d="M253.4,31.3v10h24.3v11.6h-24.3v9.5h27.7v11.8h-41.3V19.5h41.3v11.8H253.4z"/>
	<g>
		<path class="st0" d="M121,17.1c-21.6,0-39.1,16.7-39.1,37.3c0,7.3,2.2,14,6,19.8h18.9c-5.7-4.3-9.5-11.2-9.5-18.9
			c0-13.1,10.6-23.8,23.8-23.8c13.1,0,23.8,10.6,23.8,23.8c0,7.7-3.7,14.6-9.4,18.9h18.9c3.8-5.7,5.9-12.5,5.9-19.8
			C160.1,33.8,142.6,17.1,121,17.1z"/>
		<path class="st0" d="M108.1,60.5c1.8,5.5,6.9,9.4,12.8,9.4c6,0,11-3.9,12.8-9.4H108.1z"/>
	</g>
</g>
<g>
	<path class="st1" d="M164.6,163.8c-0.2,0.5-0.6,1.4-0.7,2.1c-0.2,0.2-0.1,0.6-0.2,0.8c-0.3,0.8-1,2.3-1,3.2c0,0.1-0.1,0.2-0.2,0.4
		c-0.2,0.6-0.3,1.2-0.3,1.9c-0.3,0.5-0.5,1.4-0.5,1.6c0,0.2-0.1,0.9-0.3,1.4c0,0,0.1,0.1,0.2,0.2c-0.1,0.8-0.3,1.9-0.4,2.8
		c-0.2,0.1-0.1,0-0.3,0.1c0,0,0,0,0,0c0,0,0,0,0.1,0c0,0.4-0.1,0.8-0.3,1.2c0,0,0.1,0.1,0.2,0.2c-0.2,1.9-0.3,3.3-0.3,5.6
		c-0.3,0.2-0.7,0.4-1,0.5l-1.2,0.1c-0.2,0-0.5-0.1-0.7-0.2c-0.8-0.3-1.5-0.8-2.2-1.2c-0.4-0.2-0.8-0.7-1-1c-0.4-0.7-1-2-1.7-2.9
		c0,0,0.1-0.1,0.1-0.1c-0.4-0.3-0.7-1.1-0.9-1.5c0,0,0-0.1,0-0.2c-0.1-0.1-0.2-0.2-0.2-0.2c-0.1-0.1-0.1-0.2,0-0.3
		c-0.6-1-1.4-2.2-1.8-3.1c-0.7-1.4-1.5-2.9-2.2-4.4c-0.1-0.1-0.2-0.2-0.4-0.3l-0.1,0c-0.4,1.9-0.9,4.2-1.5,6c0,0.1-0.2,0.4-0.4,0.5
		c-0.3,0.9-0.6,1.9-0.9,2.8c0,0.1-0.1,0.1-0.2,0.2c-0.1,0.4-0.3,0.7-0.3,1.2c-0.1,0.1-0.2,0.2-0.2,0.4c-0.3,1.4-1,2.5-0.7,3.5
		c0.1,0.3,0,1,0.4,1.1c-0.1,0.1-0.3,0.1-0.4,0c-0.2,0.2-0.1,0.4-0.4,0.4c-0.3,0-0.6,0.1-0.9,0.1c-0.2,0-0.4-0.3-0.8-0.2
		c-0.2,0-0.1,0-0.2,0.1c-0.3-0.4-0.8-0.9-1.4-1.5c0.1-0.1,0.1-0.2,0.1-0.2c-0.1-0.3-0.4-0.9-0.4-1c0-0.2,0.1-0.9,0.3-1.2
		c0.1-0.5,0-1,0.1-1.5c0.7-2.4,1.3-4.8,2.2-7.2l0-0.5c0.4-1.8,1-3.7,1.5-5.7l1-3.5c0-0.2,0.1-0.4,0-0.7c-0.1-0.2,0-0.4-0.1-0.7
		c0.3-0.9,0.9-1.2,1.4-1.5l0.4,0c0.3-0.2,0.5-0.3,0.7-0.3c0.3,0,0.5,0.1,0.8,0.2c0.3,0,0.7,0,1,0c0.4,0.1,0.8,0.5,1.1,0.7
		c0.1,0.2,0,0.5,0.1,0.6c0.1,0.5,0,1-0.1,1.5c-0.1,0.4,0.5,0.9,0.7,1.4c0,0.1,0,0.4,0.1,0.5c0.7,1.4,1.6,2.9,2.3,4.4
		c0.9,1.8,2.1,4.3,3,6.3c0.1,0.1,0.3,0.3,0.5,0.4c0.4-0.3,0.3-0.6,0.5-1c-0.2,0.4-0.2,0.8,0,1.2c0.3-1.1,0.4-2.2,0.8-3.2l1.8-8.1
		c0.3-0.8,0.8-0.9,0.6-1.5c0.4-0.6,0.4-1.8,1-2.1c0.3-0.8,0.6-1.6,0.9-2.4c-0.1-0.1-0.3,0-0.3,0.1c0-0.1,0.1-0.3,0.2-0.4
		c0,0.1,0.1,0.2,0.2,0.2c0.1-0.1,0.1-0.2,0.1-0.4c0-0.2-0.1-0.4-0.3-0.5c0.6,0.1,1-0.1,1.6,0c0.1-0.1,0.2-0.1,0.2-0.2
		c-0.1-0.1-0.2-0.1-0.5,0l0.5-0.1c0.4,0.1,0.6-0.1,0.9,0.3c0.1,0,0.2-0.1,0.3-0.3c0.2,0.2,0.2,0.3,0.2,0.5c0.2,0.1,0.3,0.2,0.6,0.2
		c0.1,0.6,0.8,0.5,0.9,0.9C166.2,160.9,165.1,162.8,164.6,163.8z M139.8,182.3L139.8,182.3l-0.3,0.2l0.2,0.1L139.8,182.3z
		 M140,181.8c0-0.1-0.1-0.4-0.1-0.5c-0.1,0.3-0.2,0.6-0.2,0.7L140,181.8z M140.2,180.4l-0.1,0l-0.1,0.4l0.2,0L140.2,180.4z
		 M140.9,178c0.1-0.4,0.2-1,0.3-1.4C141.1,177.1,141,177.6,140.9,178z M141.5,175.2c0,0.4-0.1,0.8-0.2,1.2c0.2-0.3,0.4-0.8,0.4-1
		C141.7,175.2,141.5,175.3,141.5,175.2z M160.7,161.8l-0.1,0.5l-0.2,0l0.1-0.5L160.7,161.8z M161.1,161.1l-0.1,0.2l-0.2,0l0.2-0.2
		L161.1,161.1z"/>
	<path class="st1" d="M172.4,184.1c-0.2,0.1-0.2,0.4-0.3,0.5c-1,0.5-1.9,0.8-2.8,0.9c-1.4,0.1-2.3-0.5-3.2-1c-0.3-0.2-0.6-1-1.2-1
		c-0.2-0.4-0.5-1.2-0.5-1.3c-0.1-1.5,1.4-4.4,1.8-4.9c0.1-0.1,0-0.4,0.2-0.6c0.3-0.4,0.8-0.9,1-1.3c0.2-0.1,0.2-0.1,0.4-0.1
		c0.2,0,0.1-0.2,0.2-0.4c0.2-0.3,0.8-0.5,1.1-0.8c0.2-0.2,0.1-0.4,0.2-0.7c-0.1,0-0.4-0.1-0.6,0.1c0-0.1-0.1-0.2-0.1-0.2
		c-0.1,0-0.1,0.1-0.1,0.3c0-0.2-0.1-0.2-0.3-0.2l0.1,0c0,0,0.1,0,0.2-0.1c-0.4-1.3,2.8-1.9,3.2-2.3c0.3,0.4,0.6,0.1,1.1,0.2
		c0.2,0.1,1.1,0.7,1.5,0.9c0,0,0.1,0.1,0.1,0.1c0.1,0.1,0.2,0.2,0.2,0.2c0.1,0,0.3,0,0.5,0.1c1.6,1.4,2.7,2.7,2.8,4.1
		C178.1,179.1,175.6,181.7,172.4,184.1z M173.2,174.5c-0.4,0.7-1.4,1.7-1.8,2.2c-0.9,1.4-2.5,4.3-2.5,4.5l0,0.3
		c0.6-0.3,1.5-1.1,1.8-1.1c0.3,0-0.2,0.2,0.2,0.2c0.4,0,2.1-2.3,2.2-2.5c0.3-0.3,0.9-2.3,0.8-2.4
		C173.9,175.4,173.5,174.8,173.2,174.5z M172.7,174.2l0-0.5l-0.2,0l0,0.5L172.7,174.2z"/>
	<path class="st1" d="M201.3,179c-0.2,1.2-0.9,2.3-1.5,3.2c-0.4,0.4-0.9,0.9-1.2,1.3c-0.1,0.2-0.4,0.3-0.7,0.3
		c-0.1,0-0.5-0.1-1.1-0.2c-0.6-0.2-1.1-0.4-1.5-0.5c-0.2-0.1-0.5-0.3-0.7-0.6c-0.5-0.8-0.9-1.6-1.3-2.4c-0.5-0.9-0.9-1.9-1.3-2.8
		c-0.2,0.2-0.5,0.6-0.8,0.9c-0.1,0.2-0.7,0.4-0.6,0.8c-0.2-0.1-0.3,0.1-0.5,0.1c-1.3,1.3-2.9,2.4-3.7,3.5c-0.6,0.6-1.8,1.3-2.5,1.6
		l0,0.4l-1.6,0.1c-0.4,0-1.2-0.2-1.6-0.5c-0.6-0.2-1.6-1.8-1.7-2.2c-0.1-1-0.3-2.5,0.5-4c0.8-1.5,1.9-2.9,2.5-3.8
		c0.5-0.9,1.9-2.6,3.1-4.1c0.9,0.1,1.4-0.1,2.5,0.5c0.5,0.2,0.8,0.8,1.1,1.3c-0.3,0.2-0.4,0.6-0.8,0.9l0,0.3l-2.6,3.6
		c-1,1.3-1.9,2.6-1.2,3.5l0,0.1c0.6-0.4,2.4-2.4,3.4-3.3c1.4-1.7,1.5-1.9,1.8-2.2c0.3-0.3,0.8-0.5,1.7-0.5c0.4,0,0.6,0.3,0.9,0.4
		c1.3,0.1,2.4,0.6,2.9,1.8c0.5,1.2,1.1,2.1,1.4,2.9c1.4-1.5,1.7-4.1,1.7-5.3c0-0.6-0.3-1.6-0.3-2.5c0-0.3,0.1-0.9,0-1.5
		c0,0.1,0.1,0.2,0.2,0.3c0.1,0.1,0.6,0.1,0.6,0.2c0.1,0,0.1,0.2,0.4,0.4c0.1-0.1,0.3-0.2,0.4-0.2l0,0.3c0.3,0.1,0.7,0.2,1,0.2
		c0.8,1,1.5,2.4,1.6,3.4C201.9,176,201.5,177.4,201.3,179z"/>
	<path class="st1" d="M235,172.3c0.2,0.4,0.1,0.8,0.1,1.1c-0.1,0.5-0.5,1.1-0.5,1.7c0,0.1,0.1,0.4,0,0.5c-0.3,1.6-0.8,3.3-1,4.8
		l-0.3,0.3c-0.4,2-0.9,4-1.2,6c-0.1,0.2,0.1,0.8,0.1,1.1c-0.2,0.2-0.3,0.5-0.3,0.7c0.1,1-0.2,2.7,0,2.9l0.1,0.5
		c0.2,0.1,0,0.2,0.4,0.2c0.7-0.1,1.3-0.6,1.9-0.9l0.3,1.1c-1,0.3-0.2,1.1-0.7,1.2c-0.3,0-0.1-0.1-0.3-0.1c-0.4,0.1-0.7,0.4-1,0.4
		c-0.2,0-1.1-0.2-1.4-0.3c-0.3-0.1-0.7-0.5-0.9-0.7c-0.6-0.4-1.5-1.4-1.8-2.2c-1-4.5,1.8-16,2.2-17.5l0,0c0,0,0-0.1-0.1-0.1
		c-2.3,2.3-4.3,4.5-6.9,6.8c-0.2,0.2-0.6,0.4-1.2,0.7c-0.6,0.3-1,0.5-1.4,0.5c-1.9,0.3-2.9-1.4-3.2-2.4c-0.4-1.6,2.4-7.2,2.8-7.8
		c0.5-0.6,1-1.5,1.6-2.2c1-0.3,2.5,0.4,2.6,1c0.1,0.2,0.1,0.4,0.1,0.4c-0.3,0.4-0.7,1.2-1,1.8c-0.6,1.1-1.2,2.7-2,4.2
		c-0.2,0.2-0.3,0.3-0.4,0.5c-0.1,0.2-0.1,0.4,0,0.8l9.4-9.5c3.1,0.6,4,0.9,4.3,2.5C235.3,170.6,235.3,171.7,235,172.3z"/>
	<path class="st1" d="M244.1,180.4c-0.2,0.1-0.2,0.4-0.3,0.5c-1,0.5-1.9,0.8-2.8,0.9c-1.4,0.1-2.3-0.5-3.2-1c-0.3-0.2-0.6-1-1.2-1
		c-0.2-0.4-0.5-1.2-0.5-1.3c-0.1-1.5,1.4-4.4,1.8-4.9c0.1-0.1,0-0.4,0.2-0.6c0.3-0.4,0.8-0.9,1-1.3c0.2-0.1,0.2-0.1,0.4-0.1
		c0.2,0,0.1-0.2,0.2-0.4c0.2-0.3,0.8-0.5,1.1-0.8c0.2-0.2,0.1-0.4,0.2-0.7c-0.1,0-0.4-0.1-0.6,0.1c0-0.1-0.1-0.2-0.1-0.2
		c-0.1,0-0.1,0.1-0.1,0.3c0-0.2-0.1-0.2-0.3-0.2l0.1,0c0,0,0.1,0,0.2-0.1c-0.4-1.3,2.8-1.9,3.2-2.3c0.3,0.4,0.6,0.1,1.1,0.2
		c0.2,0.1,1.1,0.7,1.5,0.9c0,0,0.1,0.1,0.1,0.1c0.1,0.1,0.2,0.2,0.2,0.2c0.1,0,0.3,0,0.5,0.1c1.6,1.4,2.7,2.7,2.8,4.1
		C249.8,175.4,247.3,178.1,244.1,180.4z M244.9,170.8c-0.4,0.7-1.4,1.7-1.8,2.2c-0.9,1.4-2.5,4.3-2.5,4.5l0,0.3
		c0.6-0.3,1.5-1.1,1.8-1.1c0.3,0-0.2,0.2,0.2,0.2c0.4,0,2.1-2.3,2.2-2.5c0.3-0.3,0.9-2.3,0.8-2.4
		C245.5,171.8,245.2,171.2,244.9,170.8z M244.4,170.6l0-0.5l-0.2,0l0,0.5L244.4,170.6z"/>
	<path class="st1" d="M270.6,175.5c-0.1,0.1-0.4,0.3-0.7,0.5c0.2,0.2,0.3,0.4,0.6,0.5c-0.2,0.3-0.4,0.5-0.6,0.9
		c-0.1,0.1-0.1,0.2,0,0.2c-0.1,0.1-0.3,0.3-0.6,0.6c0.2,0.1,0.3,0.1,0.5-0.1c0,0.1,0,0.3-0.3,0.3c-0.4,0-0.1-0.1-0.2-0.2
		c-0.1,0.1-0.1,0.3-0.2,0.4c-0.1,0.1-0.3,0.4-0.7,0.6c-0.5,0.3-1.6,0.9-1.9,0.9c-1.1,0.1-2.4-0.2-3.4-0.4c-0.2-0.1-0.7-0.4-0.9-0.6
		c-0.6-0.8-1.2-1.7-1.7-2.4c-0.2-0.2-0.1-0.7-0.1-1c0-0.2-0.1-0.4-0.2-0.5c-1.5,1.6-3.3,3.2-4.5,5.1c-0.2,0.1-0.5,0.3-0.9,0.5
		l-0.1,0c0,0,0.1,0.1,0.1,0.1c-0.4,0-1-0.1-1.5,0c-0.2-0.3-0.8-0.5-1.3-0.8c-0.2-0.2-0.8-0.5-0.8-0.8c-0.2-0.3-0.4-0.9-0.4-1.2
		c-0.2-1.6,0.3-2.6,0.5-4.1c0.4-0.3,0.6-0.8,0.7-1.2c0-0.2-0.2-0.4-0.2-0.6c0.2-0.3,0.5-0.6,0.6-0.7c0.2-0.2,0.1-0.6,0.2-0.9
		c0-0.1,0.3-0.1,0.4-0.3c0-0.1-0.1-0.1-0.1-0.3c0.9-1.3,1.3-3.5,3.4-3.6c0.3,0,0.6,0.2,0.9,0.1c0.1,0.3,0.6,0.6,0.8,0.8
		c0,0.1,0.2,0.3,0.2,0.5c0.1,0.9-1,2.4-1.6,3.6c-0.3,0.6-0.8,1.4-1.1,2c-0.3,0.7-0.8,1.5-1.2,2.4c0,0.1,0,0.2,0.1,0.4
		c-0.3,0.4-0.4,0.9-0.6,1.4l0,0.2l0.1,0c2.9-2.7,5.6-5.1,7.2-7.9c0.3-0.5,0.7-1.2,1.2-1.7c0.2,0.1,0.5,0.2,0.8,0.3
		c0.2,0,0-0.2,0-0.3c0.2,0.1,0.2,0.3,0.5,0.2c0.2,0-0.1-0.1,0.2-0.1c0.1,0,0.5,0.5,1.4,0.6c0.4,0.3,0.8,1,0.8,1.3
		c0,0.1-0.6,1-0.8,1.5c-0.3,0.7-0.7,1.7-0.8,2.6l0,0.1c-0.1,0-0.1,0.1-0.1,0.1c-0.1,0.7-0.2,1.9-0.2,2.1c0,0.2,0.1,0.3,0.4,0.3
		c0.1,0,0.2,0.1,0.3,0.1c0.1,0,0.6-0.1,1.2-0.2l1.6-0.4c0.9-0.2,1.8-0.8,2.6-1.2L270.6,175.5z"/>
	<path class="st1" d="M297.9,173.1c-0.3,0-0.2-0.1-0.3,0c0,0.1-0.2,0.2,0.1,0.2c0.3,0,0.1,0,0.3,0c-0.2,0.1-0.4,0.5-0.2,0.7
		c-0.5,0.4-1.2,0.8-1.7,1.2c0,0.1,0.1,0.1,0.2,0.1l0,0.3c-1.1,0.5-2.2,1.2-3.8,2c-0.2,0.1-0.3,0.5-0.5,0.6c-0.5,0.2-2.9,1-3.9,1
		c-2.4,0.1-4.7-1.6-5-3.1c0-0.3-0.1-0.6-0.1-0.8c0-0.5,0-1.2,0.1-2.1c0.1-0.9,0.4-1.7,0.8-2.3c0.1,0,0.1-0.3,0.1-0.4
		c0.4-0.7,0.8-1.4,1.3-1.9c0.4-0.3,0.8-0.6,1-1c0,0,0-0.1-0.1-0.1c-0.1,0.1-0.2,0.1-0.2,0.2c0.5-0.5,1.1-1.5,1.8-2.1
		c0.2-0.2,0.7-0.2,1-0.4c0.3-0.2,0.4-0.4,0.8-0.4c0.2,0,1.5,0.1,2,0.2c0.5,0.2,1.6,0.7,1.9,1.2c0.3,0.4,0.6,1,0.6,1.3
		c0,0.3-0.3,2.4-0.8,2.6c-0.1,0.1-0.4,0.1-0.7,0.1c-0.7,0-1.2-0.4-1.4-0.9c-0.2-0.4-0.7-0.7-0.5-1l0,0l-0.1,0
		c-1.6,1.7-2.8,3.5-3.4,4.8c-0.4,0.8-1,2.8-1,3l0,0.5c0.4,0.1,1.1,0.2,1.4,0.2c0.2,0,1.3-0.4,2-0.7c1.6-0.6,3.7-1.2,5.8-2.1
		c0.5-0.3,2-1,3-1.4C298.4,172.5,298.3,173.1,297.9,173.1z"/>
	<path class="st1" d="M317.2,174.5c-0.2,0.2-0.3,0.3-0.1,0.5c-0.3,0.3-1,0.8-1.7,1.2c0,0,0.3,0.2,0.4,0.2c-1,0.2-2.5,1.3-2.9,1.3
		l-2,0.1c-1.9,0.1-3.9-2.6-3.9-2.9c0-0.4-0.1-1.1-0.3-1.7c-0.5,0.7-0.9,1.2-1.4,1.9c-0.5,0.6-2.6,3.2-4,3.3c-0.2,0-0.7,0.2-1,0.2
		c-1.5,0.1-2.1-0.6-3.1-1.1c-0.1-0.3-0.5-0.8-0.5-1c-0.2-2.1,3.1-6.9,4.6-8.5c0.3-0.3,1.2-1.1,1.7-1.4c0.4-0.2,0.9-0.6,1.3-0.9
		c0.1-0.1-0.1-0.2,0.1-0.3c0.4-0.2,0.7-0.1,1-0.3c0.2-0.1,0.4-0.3,0.5-0.5l0.4,0c0.3,0.2,0.6,0.3,0.8,0.3c0.2,0,0.5,0,0.8,0
		c0.5-0.5,0.1-0.7,0.7-0.7c0.3,0,0.1,0.3,0.4,0.3c0.4,0,0-0.1,0.3-0.1c0.6,0,1.7,0.3,2.1,0.6c0.2,0.2,0.4,0.6,0.3,0.8
		c0,0.1,0.1-0.1,0.2,0.1c0,0.2-0.7,2.5-1,3.8c-0.3,1.8-0.5,5.3-0.5,5.5c0,0.2,0.2,0.7,0.2,1c0.5,0.1,1-0.1,1.4-0.1
		c0.7,0,5.7-2.1,6-2.2C317.9,174,317.3,174.2,317.2,174.5z M305.9,168.6c-0.2-0.1,0-0.3,0-0.4c-1.4,1.4-2.7,3.4-3.6,5l0.3,0.2
		c1.4-1.4,2.4-3.4,3.6-5.1L305.9,168.6z"/>
	<path class="st1" d="M334.9,173.2c-0.1,0.1,0.1,0.3,0.1,0.3c-0.1,0.1-0.3,0.2-0.4,0.3c0.1,0,0.2,0.1,0.4,0l0,0
		c-0.1,0.1-0.1,0.1-0.2,0.1c-0.2,0.1,0,0.4-0.3,0.6c0.2,0.2,0,0.4,0.2,0.5c-0.2,0.2-0.6,0.3-0.6,0.6c-0.2,0.3-1,0.6-1.4,0.9
		c-0.3,0.1-0.6,0.6-0.8,0.8c-0.6,0.1-1.5,0-1.9,0c-0.5,0-2.8-0.7-3-1c-0.8-1-1.6-2-1.8-3.1c-0.3-0.7-0.4-2-0.6-3
		c-0.1,0,0-0.1-0.1-0.2c-1.2,1.1-2.5,2.8-3.7,4c0,0,0,0.1,0,0.2c-0.4,0.6-0.8,1.2-1.3,1.8c-0.4,0.4-1.3,1.2-1.6,1.3
		c-0.3,0-0.6-0.3-0.8-0.3c-0.4,0,0.1,0.1-0.3,0.1c-1.2,0.2-1.5-1.5-1.7-1.7c-0.2-0.1-0.4-0.3-0.5-0.6c0-0.2,0.2-1.3,0.2-2
		c0.2-0.3,0.4-0.8,0.5-1.1c0.1-0.5,0-1.1,0.2-1.6c0.7-1.9,1.7-4.7,2.8-7.2c0-0.1-0.1-0.4-0.1-0.7c0.4-0.3,0.9-0.7,1.2-0.8
		c0.3,0.2,0.6,0.4,0.9,0.7c0.2-0.1,0.1-0.4,0.1-0.6c0.3,0.2,0.7,0.3,1.2,0.4c0,0.2-0.1,0.4,0.1,0.6l0,0c0.1,0,0.1,0,0.3-0.1l0.1,0.4
		c0.1,0.2-0.2,0.5-0.3,0.8c-0.1,0.6-0.1,1.5-0.2,2.2c0,0.2-0.1,0.3-0.2,0.5c-0.2,0.5-0.2,1-0.1,1.5c0.6-0.5,1.6-2,2.5-2.3
		c0.4-0.2,0.9-0.1,1.5-0.3c0.3,0.2,0.5,0.3,0.6,0.5c0.2-0.1,0.3-0.2,0.6-0.3c0.2,0,0.9,0.4,1.3,0.6l0,0c0,0,0,0.1-0.1,0.1
		c0,0.1,0.2,0.1,0.3,0.1c1.3,1.5,0.9,0.9,1.2,1.9c0.2,0.2,0.1,3,0.3,4.4c-0.1,0.6,0.2,1.2,0.3,1.9c0.1,0.1,0.4,0.1,0.6,0
		c0.8,0,2.3-1.1,3.1-1.4l0,0c-0.1,0-0.1,0-0.1,0.1l0,0.1l0.2,0c0.3,0,1-0.6,1.6-0.9C335,172.7,334.9,172.9,334.9,173.2z M326.8,166
		l-0.1-0.2l-0.3,0.1l0.1,0.2L326.8,166z"/>
</g>
</svg>
