<?xml version="1.0" encoding="utf-8"?>
<!-- Generator: Adobe Illustrator 21.1.0, SVG Export Plug-In . SVG Version: 6.00 Build 0)  -->
<svg version="1.1" id="Layer_1" xmlns="http://www.w3.org/2000/svg" xmlns:xlink="http://www.w3.org/1999/xlink" x="0px" y="0px"
	 viewBox="0 0 100 100" style="enable-background:new 0 0 100 100;" xml:space="preserve">
<style type="text/css">
	.st0{fill-rule:evenodd;clip-rule:evenodd;fill:#ABABAB;}
</style>
<g>
	<path class="st0" d="M100,50c0-27.6-22.4-50-50-50C22.4,0,0,22.4,0,50c0,27.6,22.4,50,50,50C77.6,100,100,77.6,100,50L100,50z
		 M93.6,50c0,24.1-19.5,43.6-43.6,43.6C25.9,93.6,6.4,74.1,6.4,50C6.4,25.9,25.9,6.4,50,6.4C74.1,6.4,93.6,25.9,93.6,50L93.6,50z
		 M53.9,62.5l-1,0.9c-0.3,0.3-0.5,0.5-0.9,0.8c-1.4,1-3.4,0.8-4.7-0.5c0,0-0.1-0.1-0.1-0.1L30.8,47.8c-1.4-1.4-1.5-3.7-0.1-5.1
		c1.4-1.4,3.7-1.5,5.1-0.1L50,56.2l14.2-13.6c1.4-1.4,3.7-1.3,5.1,0.1c1.4,1.4,1.3,3.7-0.1,5.1L53.9,62.5z"/>
</g>
</svg>
